<svg version="1.1" id="Layer_1" xmlns="http://www.w3.org/2000/svg" xmlns:xlink="http://www.w3.org/1999/xlink" x="0px" y="0px"
	 width="100%" viewBox="0 0 1024 1024" enable-background="new 0 0 1024 1024" xml:space="preserve">
<path fill="#FBFBFC" opacity="1.000000" stroke="none" 
	d="
M680.000000,1025.000000 
	C453.333344,1025.000000 227.166672,1025.000000 1.000000,1025.000000 
	C1.000000,683.666687 1.000000,342.333344 1.000000,1.000000 
	C342.333344,1.000000 683.666687,1.000000 1025.000000,1.000000 
	C1025.000000,342.333344 1025.000000,683.666687 1025.000000,1025.000000 
	C910.166687,1025.000000 795.333313,1025.000000 680.000000,1025.000000 
M818.063477,343.067566 
	C814.927917,340.459229 812.090027,337.339294 808.613525,335.317139 
	C715.044373,280.890839 621.341797,226.693588 527.883667,172.077759 
	C517.715881,166.135818 509.473358,165.973694 499.275787,171.976120 
	C437.415253,208.387970 375.253326,244.287720 313.200409,280.372803 
	C281.381104,298.876404 249.613571,317.469360 217.740799,335.880249 
	C211.225952,339.643494 206.940689,344.149994 206.965805,352.344666 
	C207.296326,460.160492 207.493073,567.976807 207.656433,675.793030 
	C207.664566,681.154114 209.766602,685.154602 214.140152,687.962585 
	C218.342041,690.660278 222.663773,693.175476 226.978653,695.692383 
	C318.192932,748.897644 409.471497,801.993225 500.550140,855.429565 
	C510.416138,861.217957 518.544495,861.005066 528.319397,855.235168 
	C596.730103,814.853943 665.385925,774.887878 733.951965,734.769653 
	C759.537292,719.799500 785.111694,704.810242 810.637512,689.739014 
	C813.975769,687.767944 817.987793,686.110718 818.773438,680.814026 
	C819.084229,678.878723 819.664429,676.943726 819.667114,675.007996 
	C819.816956,567.534241 819.933899,460.060394 819.943054,352.586578 
	C819.943298,349.642944 818.731262,346.699188 818.063477,343.067566 
z"/>
<path fill="#34AE62" opacity="1.000000" stroke="none" 
	d="
M818.064941,681.186523 
	C817.987793,686.110718 813.975769,687.767944 810.637512,689.739014 
	C785.111694,704.810242 759.537292,719.799500 733.951965,734.769653 
	C665.385925,774.887878 596.730103,814.853943 528.319397,855.235168 
	C518.544495,861.005066 510.416138,861.217957 500.550140,855.429565 
	C409.471497,801.993225 318.192932,748.897644 226.978653,695.692383 
	C222.663773,693.175476 218.342041,690.660278 214.140152,687.962585 
	C209.766602,685.154602 207.664566,681.154114 207.656433,675.793030 
	C207.493073,567.976807 207.296326,460.160492 206.965805,352.344666 
	C206.940689,344.149994 211.225952,339.643494 217.740799,335.880249 
	C249.613571,317.469360 281.381104,298.876404 313.200409,280.372803 
	C375.253326,244.287720 437.415253,208.387970 499.275787,171.976120 
	C509.473358,165.973694 517.715881,166.135818 527.883667,172.077759 
	C621.341797,226.693588 715.044373,280.890839 808.613525,335.317139 
	C812.090027,337.339294 814.927917,340.459229 818.046997,343.896179 
	C818.019714,374.388062 817.995544,404.051392 818.000854,433.714691 
	C818.015686,516.205322 818.042725,598.695923 818.064941,681.186523 
M548.938354,551.761292 
	C549.535339,549.319580 550.132263,546.877869 550.835327,544.002441 
	C552.642700,544.002441 554.436768,544.002502 556.230835,544.002441 
	C577.460632,544.001953 598.690613,544.041138 619.919739,543.925110 
	C621.604248,543.915894 623.282837,542.830750 625.820984,542.008789 
	C634.861877,540.625854 644.005676,539.711609 652.920166,537.753174 
	C667.300537,534.593994 680.603088,528.889038 690.522461,517.444397 
	C706.988281,498.446625 709.135071,476.247375 704.634949,452.577301 
	C700.192078,429.208008 686.142944,414.825928 663.672668,408.233185 
	C641.158203,401.627563 618.437744,401.504303 595.485229,405.900177 
	C575.118103,409.800873 558.085693,419.353333 543.991516,434.469299 
	C530.024109,449.449280 519.858643,466.727081 513.066406,485.938019 
	C507.353271,502.096924 502.926453,518.739197 496.662140,534.668884 
	C482.536377,570.589539 438.756714,582.521667 407.781219,559.426331 
	C380.384247,538.999146 374.644684,495.580261 395.957031,467.447174 
	C410.776428,447.885040 430.327637,438.539734 455.176239,441.966675 
	C465.459106,443.384766 474.466827,448.005188 483.181763,453.357483 
	C488.119781,456.390167 490.912292,455.729797 494.004303,450.834656 
	C499.164642,442.665100 504.241699,434.442383 509.296173,426.206665 
	C512.393250,421.160370 512.107849,419.165649 506.793671,416.078949 
	C499.607239,411.904755 492.236145,408.007751 484.729767,404.443634 
	C481.356079,402.841858 479.596130,400.850098 478.920746,397.169098 
	C477.569244,389.802887 475.620361,382.547577 474.205444,375.191193 
	C473.318665,370.580505 470.864624,368.834412 466.236725,368.889557 
	C452.739044,369.050446 439.235565,369.085602 425.739746,368.854797 
	C420.534546,368.765808 418.128174,371.013214 417.316437,375.915070 
	C416.092590,383.305328 414.848297,390.706940 413.139587,397.992798 
	C412.657196,400.049591 410.907349,402.351837 409.082153,403.457886 
	C400.835205,408.455505 392.432129,413.215729 383.894196,417.697357 
	C381.980225,418.702026 379.039154,419.002838 377.014557,418.317413 
	C369.926361,415.917572 363.047791,412.904449 356.059540,410.201965 
	C349.724976,407.752258 348.121765,408.242279 344.482758,413.874664 
	C337.431824,424.787994 330.537018,435.803040 323.402649,446.661072 
	C321.002014,450.314697 321.147919,453.243927 324.113373,456.487305 
	C329.734100,462.635010 335.328705,468.832703 340.478394,475.368683 
	C341.962677,477.252533 342.621674,480.431366 342.395630,482.900818 
	C341.622589,491.346283 340.464447,499.770111 339.052826,508.134644 
	C338.659119,510.467407 337.396912,513.167480 335.647705,514.664551 
	C329.577698,519.859741 323.170837,524.669678 316.785095,529.484253 
	C313.539673,531.931213 312.470734,534.823486 313.940308,538.632996 
	C318.674255,550.904663 323.400970,563.179077 328.128815,575.453064 
	C329.414337,578.790466 331.622192,580.500488 335.406921,580.109070 
	C343.188110,579.304382 350.977386,578.419373 358.784637,578.116333 
	C361.272827,578.019714 364.286316,579.068481 366.267883,580.610413 
	C372.436432,585.410400 378.412323,590.502930 384.057465,595.905640 
	C385.952209,597.718994 387.537018,600.748230 387.694641,603.317871 
	C388.173279,611.122314 388.117340,618.982849 387.809570,626.803467 
	C387.621246,631.587585 389.719940,633.849854 394.073456,634.845459 
	C407.369415,637.886108 420.683136,640.861816 433.915710,644.160645 
	C439.133118,645.461243 442.138428,643.752808 444.180023,639.017639 
	C447.408356,631.530212 450.726288,624.072083 454.338531,616.765808 
	C455.263153,614.895630 457.219727,612.661255 459.066101,612.257263 
	C476.225220,608.502136 492.210388,602.453491 505.225189,589.838928 
	C505.668274,590.592712 505.986420,590.957825 506.116638,591.380676 
	C513.580627,615.630493 530.825256,629.943542 554.035400,637.739502 
	C573.768372,644.367554 594.143860,645.245483 614.756653,643.163696 
	C647.004211,639.906738 673.694092,625.517090 696.455933,602.996765 
	C699.882385,599.606628 699.965149,596.631653 696.724365,593.112732 
	C690.855469,586.740234 685.078674,580.278076 679.426331,573.712952 
	C676.534119,570.353699 673.865601,570.311279 670.415527,572.924988 
	C664.578247,577.347351 658.684448,581.739380 652.507263,585.660400 
	C634.253174,597.247314 614.514954,603.944458 592.589111,603.031738 
	C562.367615,601.773621 544.844849,581.641907 548.938354,551.761292 
z"/>
<path fill="#2BAE5C" opacity="1.000000" stroke="none" 
	d="
M818.419189,681.000244 
	C818.042725,598.695923 818.015686,516.205322 818.000854,433.714691 
	C817.995544,404.051392 818.019714,374.388062 818.057495,344.240112 
	C818.731262,346.699188 819.943298,349.642944 819.943054,352.586578 
	C819.933899,460.060394 819.816956,567.534241 819.667114,675.007996 
	C819.664429,676.943726 819.084229,678.878723 818.419189,681.000244 
z"/>
<path fill="#FEFEFE" opacity="1.000000" stroke="none" 
	d="
M548.201416,551.970032 
	C544.844849,581.641907 562.367615,601.773621 592.589111,603.031738 
	C614.514954,603.944458 634.253174,597.247314 652.507263,585.660400 
	C658.684448,581.739380 664.578247,577.347351 670.415527,572.924988 
	C673.865601,570.311279 676.534119,570.353699 679.426331,573.712952 
	C685.078674,580.278076 690.855469,586.740234 696.724365,593.112732 
	C699.965149,596.631653 699.882385,599.606628 696.455933,602.996765 
	C673.694092,625.517090 647.004211,639.906738 614.756653,643.163696 
	C594.143860,645.245483 573.768372,644.367554 554.035400,637.739502 
	C530.825256,629.943542 513.580627,615.630493 506.116638,591.380676 
	C505.986420,590.957825 505.668274,590.592712 505.225189,589.838928 
	C492.210388,602.453491 476.225220,608.502136 459.066101,612.257263 
	C457.219727,612.661255 455.263153,614.895630 454.338531,616.765808 
	C450.726288,624.072083 447.408356,631.530212 444.180023,639.017639 
	C442.138428,643.752808 439.133118,645.461243 433.915710,644.160645 
	C420.683136,640.861816 407.369415,637.886108 394.073456,634.845459 
	C389.719940,633.849854 387.621246,631.587585 387.809570,626.803467 
	C388.117340,618.982849 388.173279,611.122314 387.694641,603.317871 
	C387.537018,600.748230 385.952209,597.718994 384.057465,595.905640 
	C378.412323,590.502930 372.436432,585.410400 366.267883,580.610413 
	C364.286316,579.068481 361.272827,578.019714 358.784637,578.116333 
	C350.977386,578.419373 343.188110,579.304382 335.406921,580.109070 
	C331.622192,580.500488 329.414337,578.790466 328.128815,575.453064 
	C323.400970,563.179077 318.674255,550.904663 313.940308,538.632996 
	C312.470734,534.823486 313.539673,531.931213 316.785095,529.484253 
	C323.170837,524.669678 329.577698,519.859741 335.647705,514.664551 
	C337.396912,513.167480 338.659119,510.467407 339.052826,508.134644 
	C340.464447,499.770111 341.622589,491.346283 342.395630,482.900818 
	C342.621674,480.431366 341.962677,477.252533 340.478394,475.368683 
	C335.328705,468.832703 329.734100,462.635010 324.113373,456.487305 
	C321.147919,453.243927 321.002014,450.314697 323.402649,446.661072 
	C330.537018,435.803040 337.431824,424.787994 344.482758,413.874664 
	C348.121765,408.242279 349.724976,407.752258 356.059540,410.201965 
	C363.047791,412.904449 369.926361,415.917572 377.014557,418.317413 
	C379.039154,419.002838 381.980225,418.702026 383.894196,417.697357 
	C392.432129,413.215729 400.835205,408.455505 409.082153,403.457886 
	C410.907349,402.351837 412.657196,400.049591 413.139587,397.992798 
	C414.848297,390.706940 416.092590,383.305328 417.316437,375.915070 
	C418.128174,371.013214 420.534546,368.765808 425.739746,368.854797 
	C439.235565,369.085602 452.739044,369.050446 466.236725,368.889557 
	C470.864624,368.834412 473.318665,370.580505 474.205444,375.191193 
	C475.620361,382.547577 477.569244,389.802887 478.920746,397.169098 
	C479.596130,400.850098 481.356079,402.841858 484.729767,404.443634 
	C492.236145,408.007751 499.607239,411.904755 506.793671,416.078949 
	C512.107849,419.165649 512.393250,421.160370 509.296173,426.206665 
	C504.241699,434.442383 499.164642,442.665100 494.004303,450.834656 
	C490.912292,455.729797 488.119781,456.390167 483.181763,453.357483 
	C474.466827,448.005188 465.459106,443.384766 455.176239,441.966675 
	C430.327637,438.539734 410.776428,447.885040 395.957031,467.447174 
	C374.644684,495.580261 380.384247,538.999146 407.781219,559.426331 
	C438.756714,582.521667 482.536377,570.589539 496.662140,534.668884 
	C502.926453,518.739197 507.353271,502.096924 513.066406,485.938019 
	C519.858643,466.727081 530.024109,449.449280 543.991516,434.469299 
	C558.085693,419.353333 575.118103,409.800873 595.485229,405.900177 
	C618.437744,401.504303 641.158203,401.627563 663.672668,408.233185 
	C686.142944,414.825928 700.192078,429.208008 704.634949,452.577301 
	C709.135071,476.247375 706.988281,498.446625 690.522461,517.444397 
	C680.603088,528.889038 667.300537,534.593994 652.920166,537.753174 
	C644.005676,539.711609 634.861877,540.625854 624.928345,542.082397 
	C599.083130,542.155945 574.130493,542.155945 548.912964,542.155945 
	C548.629028,546.071899 548.415222,549.020996 548.201416,551.970032 
M573.340942,470.128967 
	C567.761047,479.699951 562.181152,489.270905 556.707886,498.659027 
	C557.732605,499.562653 557.844238,499.746918 557.954041,499.745819 
	C582.751587,499.500214 607.564941,499.670471 632.337830,498.751984 
	C641.076843,498.428009 649.869507,495.726105 655.050781,487.208191 
	C662.543213,474.890808 658.641785,456.123932 646.870667,447.813171 
	C631.229248,436.769836 603.747009,438.784698 589.056641,452.211395 
	C584.005371,458.050812 578.954102,463.890228 573.340942,470.128967 
z"/>
<path fill="#18A54D" opacity="1.000000" stroke="none" 
	d="
M548.569885,551.865662 
	C548.415222,549.020996 548.629028,546.071899 548.912964,542.155945 
	C574.130493,542.155945 599.083130,542.155945 624.500000,542.200806 
	C623.282837,542.830750 621.604248,543.915894 619.919739,543.925110 
	C598.690613,544.041138 577.460632,544.001953 556.230835,544.002441 
	C554.436768,544.002502 552.642700,544.002441 550.835327,544.002441 
	C550.132263,546.877869 549.535339,549.319580 548.569885,551.865662 
z"/>
<path fill="#34AE62" opacity="1.000000" stroke="none" 
	d="
M573.902771,469.729645 
	C578.954102,463.890228 584.005371,458.050812 589.760254,452.104492 
	C591.864990,451.534790 593.307007,451.167969 594.660278,450.592499 
	C600.218994,448.228607 605.544373,444.899323 611.333069,443.575378 
	C625.652649,440.300323 639.081848,442.578369 649.856995,453.452759 
	C657.675293,461.343109 658.296082,471.235535 655.632202,481.303253 
	C653.345337,489.945984 645.933716,493.657104 638.230652,495.787140 
	C632.413757,497.395599 626.140381,497.801361 620.055725,497.905914 
	C604.068909,498.180786 588.072632,498.113190 572.084167,497.893494 
	C569.201843,497.853882 564.219727,496.929321 563.903381,495.559662 
	C563.225769,492.625793 564.867676,489.107422 565.765991,485.885956 
	C566.063416,484.819702 567.108643,483.986084 567.613647,482.949493 
	C569.750671,478.562683 571.813110,474.139526 573.902771,469.729645 
z"/>
<path fill="#32B061" opacity="1.000000" stroke="none" 
	d="
M573.621826,469.929321 
	C571.813110,474.139526 569.750671,478.562683 567.613647,482.949493 
	C567.108643,483.986084 566.063416,484.819702 565.765991,485.885956 
	C564.867676,489.107422 563.225769,492.625793 563.903381,495.559662 
	C564.219727,496.929321 569.201843,497.853882 572.084167,497.893494 
	C588.072632,498.113190 604.068909,498.180786 620.055725,497.905914 
	C626.140381,497.801361 632.413757,497.395599 638.230652,495.787140 
	C645.933716,493.657104 653.345337,489.945984 655.632202,481.303253 
	C658.296082,471.235535 657.675293,461.343109 649.856995,453.452759 
	C639.081848,442.578369 625.652649,440.300323 611.333069,443.575378 
	C605.544373,444.899323 600.218994,448.228607 594.660278,450.592499 
	C593.307007,451.167969 591.864990,451.534790 590.058105,452.002869 
	C603.747009,438.784698 631.229248,436.769836 646.870667,447.813171 
	C658.641785,456.123932 662.543213,474.890808 655.050781,487.208191 
	C649.869507,495.726105 641.076843,498.428009 632.337830,498.751984 
	C607.564941,499.670471 582.751587,499.500214 557.954041,499.745819 
	C557.844238,499.746918 557.732605,499.562653 556.707886,498.659027 
	C562.181152,489.270905 567.761047,479.699951 573.621826,469.929321 
z"/>
</svg>